<svg width="170" height="63" viewBox="0 0 170 63" fill="none" xmlns="http://www.w3.org/2000/svg">
<g filter="url(#filter0_d_102_393)">
<path d="M5.384 19L11.936 2.2H14.864L21.368 19H18.128L14.528 9.448C14.448 9.256 14.336 8.952 14.192 8.536C14.064 8.12 13.92 7.672 13.76 7.192C13.6 6.696 13.456 6.24 13.328 5.824C13.2 5.392 13.104 5.08 13.04 4.888L13.64 4.864C13.544 5.184 13.432 5.544 13.304 5.944C13.176 6.344 13.04 6.76 12.896 7.192C12.752 7.624 12.608 8.04 12.464 8.44C12.336 8.84 12.216 9.2 12.104 9.52L8.504 19H5.384ZM8.36 15.16L9.44 12.448H17.096L18.248 15.16H8.36ZM24.0138 19V2.2H27.1338V16.12H34.8858V19H24.0138ZM37.9473 19V16.24H40.7073V4.96H37.9473V2.2H46.5873V4.96H43.8273V16.24H46.5873V19H37.9473ZM50.5685 19V2.2H61.5605V5.032H53.6405V16.168H61.6565V19H50.5685ZM52.0085 11.8V9.016H60.3365V11.8H52.0085ZM65.5685 19V2.2H68.3765L78.1205 15.328L77.5925 15.424C77.5285 14.976 77.4725 14.52 77.4245 14.056C77.3765 13.576 77.3285 13.08 77.2805 12.568C77.2485 12.056 77.2165 11.52 77.1845 10.96C77.1685 10.4 77.1525 9.816 77.1365 9.208C77.1205 8.584 77.1125 7.928 77.1125 7.24V2.2H80.2085V19H77.3525L67.5605 6.064L68.1845 5.896C68.2645 6.792 68.3285 7.56 68.3765 8.2C68.4405 8.824 68.4885 9.368 68.5205 9.832C68.5525 10.28 68.5765 10.656 68.5925 10.96C68.6245 11.264 68.6405 11.544 68.6405 11.8C68.6565 12.04 68.6645 12.272 68.6645 12.496V19H65.5685ZM90.7636 13.552V10.72H98.1796V13.552H90.7636ZM108.74 19V2.2H115.484C116.7 2.2 117.796 2.4 118.772 2.8C119.764 3.2 120.612 3.776 121.316 4.528C122.036 5.28 122.58 6.168 122.948 7.192C123.332 8.216 123.524 9.352 123.524 10.6C123.524 11.848 123.332 12.992 122.948 14.032C122.58 15.056 122.044 15.944 121.34 16.696C120.636 17.432 119.788 18 118.796 18.4C117.804 18.8 116.7 19 115.484 19H108.74ZM111.86 16.576L111.62 16.12H115.364C116.148 16.12 116.844 15.992 117.452 15.736C118.076 15.48 118.604 15.112 119.036 14.632C119.468 14.152 119.796 13.576 120.02 12.904C120.244 12.216 120.356 11.448 120.356 10.6C120.356 9.752 120.244 8.992 120.02 8.32C119.796 7.632 119.46 7.048 119.012 6.568C118.58 6.088 118.06 5.72 117.452 5.464C116.844 5.208 116.148 5.08 115.364 5.08H111.548L111.86 4.672V16.576ZM131.152 19.24C130.112 19.24 129.168 18.952 128.32 18.376C127.472 17.8 126.792 17.016 126.28 16.024C125.768 15.032 125.512 13.904 125.512 12.64C125.512 11.376 125.768 10.248 126.28 9.256C126.792 8.264 127.488 7.488 128.368 6.928C129.248 6.368 130.24 6.088 131.344 6.088C131.984 6.088 132.568 6.184 133.096 6.376C133.624 6.552 134.088 6.808 134.488 7.144C134.888 7.48 135.216 7.864 135.472 8.296C135.744 8.728 135.928 9.192 136.024 9.688L135.376 9.52V6.352H138.352V19H135.352V15.976L136.048 15.856C135.936 16.288 135.728 16.712 135.424 17.128C135.136 17.528 134.768 17.888 134.32 18.208C133.888 18.512 133.4 18.76 132.856 18.952C132.328 19.144 131.76 19.24 131.152 19.24ZM131.968 16.624C132.656 16.624 133.264 16.456 133.792 16.12C134.32 15.784 134.728 15.32 135.016 14.728C135.32 14.12 135.472 13.424 135.472 12.64C135.472 11.872 135.32 11.192 135.016 10.6C134.728 10.008 134.32 9.544 133.792 9.208C133.264 8.872 132.656 8.704 131.968 8.704C131.28 8.704 130.672 8.872 130.144 9.208C129.632 9.544 129.232 10.008 128.944 10.6C128.656 11.192 128.512 11.872 128.512 12.64C128.512 13.424 128.656 14.12 128.944 14.728C129.232 15.32 129.632 15.784 130.144 16.12C130.672 16.456 131.28 16.624 131.968 16.624ZM141.775 19V6.352H144.679L144.727 10.384L144.319 9.472C144.495 8.832 144.799 8.256 145.231 7.744C145.663 7.232 146.159 6.832 146.719 6.544C147.295 6.24 147.895 6.088 148.519 6.088C148.791 6.088 149.047 6.112 149.287 6.16C149.543 6.208 149.751 6.264 149.911 6.328L149.119 9.568C148.943 9.472 148.727 9.392 148.471 9.328C148.215 9.264 147.959 9.232 147.703 9.232C147.303 9.232 146.919 9.312 146.551 9.472C146.199 9.616 145.887 9.824 145.615 10.096C145.343 10.368 145.127 10.688 144.967 11.056C144.823 11.408 144.751 11.808 144.751 12.256V19H141.775ZM154.636 15.136L154.06 12.376L160.06 6.352H163.996L154.636 15.136ZM151.876 19V1.24H154.828V19H151.876ZM160.42 19L155.764 13.36L157.852 11.584L164.068 19H160.42ZM7.256 53V36.2H14C15.216 36.2 16.312 36.4 17.288 36.8C18.28 37.2 19.128 37.776 19.832 38.528C20.552 39.28 21.096 40.168 21.464 41.192C21.848 42.216 22.04 43.352 22.04 44.6C22.04 45.848 21.848 46.992 21.464 48.032C21.096 49.056 20.56 49.944 19.856 50.696C19.152 51.432 18.304 52 17.312 52.4C16.32 52.8 15.216 53 14 53H7.256ZM10.376 50.576L10.136 50.12H13.88C14.664 50.12 15.36 49.992 15.968 49.736C16.592 49.48 17.12 49.112 17.552 48.632C17.984 48.152 18.312 47.576 18.536 46.904C18.76 46.216 18.872 45.448 18.872 44.6C18.872 43.752 18.76 42.992 18.536 42.32C18.312 41.632 17.976 41.048 17.528 40.568C17.096 40.088 16.576 39.72 15.968 39.464C15.36 39.208 14.664 39.08 13.88 39.08H10.064L10.376 38.672V50.576ZM30.8201 53.24C29.4921 53.24 28.3161 52.96 27.2921 52.4C26.2841 51.84 25.4921 51.08 24.9161 50.12C24.3561 49.144 24.0761 48.032 24.0761 46.784C24.0761 45.792 24.2361 44.888 24.5561 44.072C24.8761 43.256 25.3161 42.552 25.8761 41.96C26.4521 41.352 27.1321 40.888 27.9161 40.568C28.7161 40.232 29.5881 40.064 30.5321 40.064C31.3641 40.064 32.1401 40.224 32.8601 40.544C33.5801 40.864 34.2041 41.304 34.7321 41.864C35.2601 42.408 35.6601 43.064 35.9321 43.832C36.2201 44.584 36.3561 45.408 36.3401 46.304L36.3161 47.336H26.0681L25.5161 45.32H33.8441L33.4601 45.728V45.2C33.4121 44.704 33.2521 44.272 32.9801 43.904C32.7081 43.52 32.3561 43.224 31.9241 43.016C31.5081 42.792 31.0441 42.68 30.5321 42.68C29.7481 42.68 29.0841 42.832 28.5401 43.136C28.0121 43.44 27.6121 43.88 27.3401 44.456C27.0681 45.016 26.9321 45.72 26.9321 46.568C26.9321 47.384 27.1001 48.096 27.4361 48.704C27.7881 49.312 28.2761 49.784 28.9001 50.12C29.5401 50.44 30.2841 50.6 31.1321 50.6C31.7241 50.6 32.2681 50.504 32.7641 50.312C33.2601 50.12 33.7961 49.776 34.3721 49.28L35.8361 51.32C35.4041 51.72 34.9081 52.064 34.3481 52.352C33.8041 52.624 33.2281 52.84 32.6201 53C32.0121 53.16 31.4121 53.24 30.8201 53.24ZM43.1786 53.24C42.0586 53.24 41.0506 53.056 40.1546 52.688C39.2746 52.304 38.5546 51.76 37.9946 51.056L39.9146 49.4C40.3946 49.944 40.9306 50.336 41.5226 50.576C42.1146 50.816 42.7386 50.936 43.3946 50.936C43.6666 50.936 43.9066 50.904 44.1146 50.84C44.3386 50.776 44.5306 50.68 44.6906 50.552C44.8506 50.424 44.9706 50.28 45.0506 50.12C45.1466 49.944 45.1946 49.752 45.1946 49.544C45.1946 49.16 45.0506 48.856 44.7626 48.632C44.6026 48.52 44.3466 48.4 43.9946 48.272C43.6586 48.144 43.2186 48.016 42.6746 47.888C41.8106 47.664 41.0906 47.408 40.5146 47.12C39.9386 46.816 39.4906 46.48 39.1706 46.112C38.8986 45.808 38.6906 45.464 38.5466 45.08C38.4186 44.696 38.3546 44.28 38.3546 43.832C38.3546 43.272 38.4746 42.768 38.7146 42.32C38.9706 41.856 39.3146 41.456 39.7466 41.12C40.1786 40.784 40.6826 40.528 41.2586 40.352C41.8346 40.176 42.4346 40.088 43.0586 40.088C43.6986 40.088 44.3146 40.168 44.9066 40.328C45.5146 40.488 46.0746 40.72 46.5866 41.024C47.1146 41.312 47.5626 41.664 47.9306 42.08L46.2986 43.88C45.9946 43.592 45.6586 43.336 45.2906 43.112C44.9386 42.888 44.5786 42.712 44.2106 42.584C43.8426 42.44 43.4986 42.368 43.1786 42.368C42.8746 42.368 42.6026 42.4 42.3626 42.464C42.1226 42.512 41.9226 42.592 41.7626 42.704C41.6026 42.816 41.4746 42.96 41.3786 43.136C41.2986 43.296 41.2586 43.488 41.2586 43.712C41.2746 43.904 41.3226 44.088 41.4026 44.264C41.4986 44.424 41.6266 44.56 41.7866 44.672C41.9626 44.784 42.2266 44.912 42.5786 45.056C42.9306 45.2 43.3866 45.336 43.9466 45.464C44.7306 45.672 45.3866 45.904 45.9146 46.16C46.4426 46.416 46.8586 46.712 47.1626 47.048C47.4666 47.336 47.6826 47.672 47.8106 48.056C47.9386 48.44 48.0026 48.864 48.0026 49.328C48.0026 50.08 47.7866 50.752 47.3546 51.344C46.9386 51.936 46.3626 52.4 45.6266 52.736C44.9066 53.072 44.0906 53.24 43.1786 53.24ZM56.027 53.24C54.843 53.24 53.779 52.952 52.835 52.376C51.891 51.8 51.147 51.016 50.603 50.024C50.059 49.032 49.787 47.912 49.787 46.664C49.787 45.416 50.059 44.296 50.603 43.304C51.147 42.312 51.891 41.528 52.835 40.952C53.779 40.376 54.843 40.088 56.027 40.088C57.163 40.088 58.195 40.304 59.123 40.736C60.051 41.168 60.771 41.768 61.283 42.536L59.651 44.504C59.411 44.168 59.107 43.864 58.739 43.592C58.371 43.32 57.979 43.104 57.563 42.944C57.147 42.784 56.731 42.704 56.315 42.704C55.611 42.704 54.979 42.88 54.419 43.232C53.875 43.568 53.443 44.04 53.123 44.648C52.803 45.24 52.643 45.912 52.643 46.664C52.643 47.416 52.803 48.088 53.123 48.68C53.459 49.272 53.907 49.744 54.467 50.096C55.027 50.448 55.651 50.624 56.339 50.624C56.755 50.624 57.155 50.56 57.539 50.432C57.939 50.288 58.315 50.088 58.667 49.832C59.019 49.576 59.347 49.256 59.651 48.872L61.283 50.864C60.739 51.568 59.987 52.144 59.027 52.592C58.083 53.024 57.083 53.24 56.027 53.24ZM69.4685 53.24C68.1405 53.24 66.9645 52.96 65.9405 52.4C64.9325 51.84 64.1405 51.08 63.5645 50.12C63.0045 49.144 62.7245 48.032 62.7245 46.784C62.7245 45.792 62.8845 44.888 63.2045 44.072C63.5245 43.256 63.9645 42.552 64.5245 41.96C65.1005 41.352 65.7805 40.888 66.5645 40.568C67.3645 40.232 68.2365 40.064 69.1805 40.064C70.0125 40.064 70.7885 40.224 71.5085 40.544C72.2285 40.864 72.8525 41.304 73.3805 41.864C73.9085 42.408 74.3085 43.064 74.5805 43.832C74.8685 44.584 75.0045 45.408 74.9885 46.304L74.9645 47.336H64.7165L64.1645 45.32H72.4925L72.1085 45.728V45.2C72.0605 44.704 71.9005 44.272 71.6285 43.904C71.3565 43.52 71.0045 43.224 70.5725 43.016C70.1565 42.792 69.6925 42.68 69.1805 42.68C68.3965 42.68 67.7325 42.832 67.1885 43.136C66.6605 43.44 66.2605 43.88 65.9885 44.456C65.7165 45.016 65.5805 45.72 65.5805 46.568C65.5805 47.384 65.7485 48.096 66.0845 48.704C66.4365 49.312 66.9245 49.784 67.5485 50.12C68.1885 50.44 68.9325 50.6 69.7805 50.6C70.3725 50.6 70.9165 50.504 71.4125 50.312C71.9085 50.12 72.4445 49.776 73.0205 49.28L74.4845 51.32C74.0525 51.72 73.5565 52.064 72.9965 52.352C72.4525 52.624 71.8765 52.84 71.2685 53C70.6605 53.16 70.0605 53.24 69.4685 53.24ZM77.603 53V40.352H80.483L80.531 42.944L79.979 43.232C80.139 42.656 80.451 42.136 80.915 41.672C81.379 41.192 81.931 40.808 82.571 40.52C83.211 40.232 83.867 40.088 84.539 40.088C85.499 40.088 86.299 40.28 86.939 40.664C87.595 41.048 88.083 41.624 88.403 42.392C88.739 43.16 88.907 44.12 88.907 45.272V53H85.955V45.488C85.955 44.848 85.867 44.32 85.691 43.904C85.515 43.472 85.243 43.16 84.875 42.968C84.507 42.76 84.059 42.664 83.531 42.68C83.099 42.68 82.699 42.752 82.331 42.896C81.979 43.024 81.667 43.216 81.395 43.472C81.139 43.712 80.931 43.992 80.771 44.312C80.627 44.632 80.555 44.984 80.555 45.368V53H79.091C78.803 53 78.531 53 78.275 53C78.035 53 77.811 53 77.603 53ZM93.596 53V37.136H96.548V53H93.596ZM91.1 43.088V40.352H99.308V43.088H91.1Z" fill="white"/>
</g>
<defs>
<filter id="filter0_d_102_393" x="0.384033" y="0.23999" width="168.684" height="62" filterUnits="userSpaceOnUse" color-interpolation-filters="sRGB">
<feFlood flood-opacity="0" result="BackgroundImageFix"/>
<feColorMatrix in="SourceAlpha" type="matrix" values="0 0 0 0 0 0 0 0 0 0 0 0 0 0 0 0 0 0 127 0" result="hardAlpha"/>
<feOffset dy="4"/>
<feGaussianBlur stdDeviation="2.5"/>
<feComposite in2="hardAlpha" operator="out"/>
<feColorMatrix type="matrix" values="0 0 0 0 0 0 0 0 0 0 0 0 0 0 0 0 0 0 1 0"/>
<feBlend mode="normal" in2="BackgroundImageFix" result="effect1_dropShadow_102_393"/>
<feBlend mode="normal" in="SourceGraphic" in2="effect1_dropShadow_102_393" result="shape"/>
</filter>
</defs>
</svg>
