<svg width="305" height="71" viewBox="0 0 305 71" fill="none" xmlns="http://www.w3.org/2000/svg">
<g filter="url(#filter0_d_102_289)">
<path d="M15.948 22.28C14.5293 22.28 13.232 22.0373 12.056 21.552C10.88 21.0667 9.86267 20.376 9.004 19.48C8.14533 18.5653 7.47333 17.492 6.988 16.26C6.52133 15.0093 6.288 13.6467 6.288 12.172C6.288 10.7533 6.54 9.43733 7.044 8.224C7.548 7.01067 8.248 5.94667 9.144 5.032C10.04 4.11733 11.0853 3.408 12.28 2.904C13.4747 2.4 14.772 2.148 16.172 2.148C17.124 2.148 18.048 2.288 18.944 2.568C19.84 2.848 20.6613 3.24 21.408 3.744C22.1547 4.22933 22.78 4.79867 23.284 5.452L20.96 8C20.4747 7.496 19.9707 7.076 19.448 6.74C18.944 6.38533 18.412 6.124 17.852 5.956C17.3107 5.76933 16.7507 5.676 16.172 5.676C15.3133 5.676 14.5013 5.83467 13.736 6.152C12.9893 6.46933 12.336 6.91733 11.776 7.496C11.2347 8.07467 10.8053 8.76533 10.488 9.568C10.1707 10.352 10.012 11.2293 10.012 12.2C10.012 13.1893 10.1613 14.0853 10.46 14.888C10.7773 15.6907 11.216 16.3813 11.776 16.96C12.3547 17.5387 13.036 17.9867 13.82 18.304C14.6227 18.6027 15.5 18.752 16.452 18.752C17.068 18.752 17.6653 18.668 18.244 18.5C18.8227 18.332 19.3547 18.0987 19.84 17.8C20.344 17.4827 20.8013 17.1187 21.212 16.708L23.004 19.592C22.556 20.096 21.9587 20.5533 21.212 20.964C20.4653 21.3747 19.6253 21.7013 18.692 21.944C17.7773 22.168 16.8627 22.28 15.948 22.28ZM31.7286 22.28C30.5153 22.28 29.414 21.944 28.4246 21.272C27.4353 20.6 26.642 19.6853 26.0446 18.528C25.4473 17.3707 25.1486 16.0547 25.1486 14.58C25.1486 13.1053 25.4473 11.7893 26.0446 10.632C26.642 9.47467 27.454 8.56933 28.4806 7.916C29.5073 7.26267 30.6646 6.936 31.9526 6.936C32.6993 6.936 33.3806 7.048 33.9966 7.272C34.6126 7.47733 35.154 7.776 35.6206 8.168C36.0873 8.56 36.47 9.008 36.7686 9.512C37.086 10.016 37.3006 10.5573 37.4126 11.136L36.6566 10.94V7.244H40.1286V22H36.6286V18.472L37.4406 18.332C37.31 18.836 37.0673 19.3307 36.7126 19.816C36.3766 20.2827 35.9473 20.7027 35.4246 21.076C34.9206 21.4307 34.3513 21.72 33.7166 21.944C33.1006 22.168 32.438 22.28 31.7286 22.28ZM32.6806 19.228C33.4833 19.228 34.1926 19.032 34.8086 18.64C35.4246 18.248 35.9006 17.7067 36.2366 17.016C36.5913 16.3067 36.7686 15.4947 36.7686 14.58C36.7686 13.684 36.5913 12.8907 36.2366 12.2C35.9006 11.5093 35.4246 10.968 34.8086 10.576C34.1926 10.184 33.4833 9.988 32.6806 9.988C31.878 9.988 31.1686 10.184 30.5526 10.576C29.9553 10.968 29.4886 11.5093 29.1526 12.2C28.8166 12.8907 28.6486 13.684 28.6486 14.58C28.6486 15.4947 28.8166 16.3067 29.1526 17.016C29.4886 17.7067 29.9553 18.248 30.5526 18.64C31.1686 19.032 31.878 19.228 32.6806 19.228ZM44.1495 22V1.28H47.6215V22H44.1495ZM51.6963 22V1.28H55.1683V22H51.6963ZM74.1937 22.28C72.719 22.28 71.403 21.9533 70.2457 21.3C69.0884 20.628 68.1737 19.7133 67.5017 18.556C66.8297 17.3987 66.4937 16.0827 66.4937 14.608C66.4937 13.1333 66.8297 11.8173 67.5017 10.66C68.1737 9.50267 69.0884 8.59733 70.2457 7.944C71.403 7.272 72.719 6.936 74.1937 6.936C75.6497 6.936 76.9564 7.272 78.1137 7.944C79.271 8.59733 80.1764 9.50267 80.8297 10.66C81.5017 11.8173 81.8377 13.1333 81.8377 14.608C81.8377 16.0827 81.5017 17.3987 80.8297 18.556C80.1764 19.7133 79.271 20.628 78.1137 21.3C76.9564 21.9533 75.6497 22.28 74.1937 22.28ZM74.1937 19.228C74.9964 19.228 75.7057 19.0227 76.3217 18.612C76.9564 18.2013 77.451 17.6507 77.8057 16.96C78.179 16.2693 78.3564 15.4853 78.3377 14.608C78.3564 13.712 78.179 12.9187 77.8057 12.228C77.451 11.5373 76.9564 10.996 76.3217 10.604C75.7057 10.1933 74.9964 9.988 74.1937 9.988C73.391 9.988 72.663 10.1933 72.0097 10.604C71.375 10.996 70.8804 11.5467 70.5257 12.256C70.171 12.9467 69.9937 13.7307 69.9937 14.608C69.9937 15.4853 70.171 16.2693 70.5257 16.96C70.8804 17.6507 71.375 18.2013 72.0097 18.612C72.663 19.0227 73.391 19.228 74.1937 19.228ZM85.7155 22V5.928C85.7155 5.032 85.9115 4.23867 86.3035 3.548C86.6955 2.83867 87.2368 2.288 87.9275 1.896C88.6181 1.48533 89.4208 1.28 90.3355 1.28C90.9701 1.28 91.5581 1.392 92.0995 1.616C92.6408 1.82133 93.0981 2.11067 93.4715 2.484L92.4075 5.088C92.1648 4.88267 91.9035 4.724 91.6235 4.612C91.3621 4.5 91.1101 4.444 90.8675 4.444C90.4941 4.444 90.1768 4.50933 89.9155 4.64C89.6728 4.752 89.4861 4.92933 89.3555 5.172C89.2435 5.41467 89.1875 5.704 89.1875 6.04V22H87.4515C87.1155 22 86.7981 22 86.4995 22C86.2195 22 85.9581 22 85.7155 22ZM83.4195 10.576V7.552H92.5195V10.576H83.4195ZM104.21 22V2.4H112.078C113.497 2.4 114.775 2.63333 115.914 3.1C117.071 3.56667 118.061 4.23867 118.882 5.116C119.722 5.99333 120.357 7.02933 120.786 8.224C121.234 9.41867 121.458 10.744 121.458 12.2C121.458 13.656 121.234 14.9907 120.786 16.204C120.357 17.3987 119.731 18.4347 118.91 19.312C118.089 20.1707 117.099 20.8333 115.942 21.3C114.785 21.7667 113.497 22 112.078 22H104.21ZM107.85 19.172L107.57 18.64H111.938C112.853 18.64 113.665 18.4907 114.374 18.192C115.102 17.8933 115.718 17.464 116.222 16.904C116.726 16.344 117.109 15.672 117.37 14.888C117.631 14.0853 117.762 13.1893 117.762 12.2C117.762 11.2107 117.631 10.324 117.37 9.54C117.109 8.73733 116.717 8.056 116.194 7.496C115.69 6.936 115.083 6.50667 114.374 6.208C113.665 5.90933 112.853 5.76 111.938 5.76H107.486L107.85 5.284V19.172ZM129.91 22.28C128.846 22.28 127.922 22.0467 127.138 21.58C126.354 21.0947 125.756 20.4133 125.346 19.536C124.935 18.64 124.73 17.576 124.73 16.344V7.244H128.174V15.616C128.174 16.4 128.295 17.072 128.538 17.632C128.78 18.1733 129.135 18.5933 129.602 18.892C130.068 19.1907 130.628 19.34 131.282 19.34C131.767 19.34 132.206 19.2653 132.598 19.116C133.008 18.948 133.363 18.724 133.662 18.444C133.96 18.1453 134.194 17.8 134.362 17.408C134.53 16.9973 134.614 16.5587 134.614 16.092V7.244H138.058V22H134.698L134.642 18.92L135.258 18.584C135.034 19.2933 134.651 19.928 134.11 20.488C133.587 21.0293 132.962 21.468 132.234 21.804C131.506 22.1213 130.731 22.28 129.91 22.28ZM143.69 22V3.492H147.134V22H143.69ZM140.778 10.436V7.244H150.354V10.436H140.778ZM155.217 28.44L158.353 21.188L158.381 23.484L151.101 7.244H155.077L159.137 16.876C159.268 17.1187 159.398 17.4453 159.529 17.856C159.66 18.248 159.772 18.64 159.865 19.032L159.165 19.256C159.296 18.9013 159.436 18.528 159.585 18.136C159.734 17.7253 159.874 17.3053 160.005 16.876L163.477 7.244H167.481L161.321 22L158.801 28.44H155.217ZM174.865 14.972C173.633 14.972 172.513 14.6827 171.505 14.104C170.497 13.5253 169.695 12.7413 169.097 11.752C168.5 10.7627 168.201 9.66133 168.201 8.448C168.201 7.53333 168.369 6.684 168.705 5.9C169.06 5.09733 169.545 4.40667 170.161 3.828C170.777 3.23067 171.487 2.764 172.289 2.428C173.092 2.092 173.951 1.924 174.865 1.924C175.761 1.924 176.611 2.092 177.413 2.428C178.216 2.764 178.916 3.23067 179.513 3.828C180.111 4.42533 180.577 5.116 180.913 5.9C181.268 6.684 181.445 7.53333 181.445 8.448C181.445 9.36267 181.268 10.2213 180.913 11.024C180.577 11.808 180.111 12.4987 179.513 13.096C178.916 13.6747 178.216 14.132 177.413 14.468C176.629 14.804 175.78 14.972 174.865 14.972ZM174.865 13.208C175.761 13.208 176.564 13.0027 177.273 12.592C178.001 12.1627 178.58 11.584 179.009 10.856C179.457 10.128 179.681 9.32533 179.681 8.448C179.681 7.57067 179.457 6.768 179.009 6.04C178.58 5.312 178.001 4.73333 177.273 4.304C176.564 3.87467 175.761 3.66 174.865 3.66C173.951 3.66 173.12 3.87467 172.373 4.304C171.645 4.73333 171.057 5.312 170.609 6.04C170.161 6.768 169.937 7.57067 169.937 8.448C169.937 9.32533 170.161 10.128 170.609 10.856C171.057 11.584 171.645 12.1627 172.373 12.592C173.12 13.0027 173.951 13.208 174.865 13.208ZM175.789 11.724L174.753 9.036L176.405 8.616L177.749 11.724H175.789ZM172.289 11.724V5.032H175.481C176.135 5.032 176.657 5.228 177.049 5.62C177.46 5.99333 177.665 6.47867 177.665 7.076C177.665 7.692 177.451 8.196 177.021 8.588C176.611 8.98 176.097 9.176 175.481 9.176H173.661L174.109 8.896V11.724H172.289ZM174.109 8.14L173.689 7.944H174.921C175.22 7.944 175.453 7.87867 175.621 7.748C175.808 7.61733 175.901 7.44933 175.901 7.244C175.901 7.02 175.817 6.852 175.649 6.74C175.5 6.60933 175.276 6.544 174.977 6.544H173.633L174.109 6.32V8.14ZM185.137 22.28C184.465 22.28 183.942 22.084 183.569 21.692C183.214 21.3 183.037 20.7493 183.037 20.04C183.037 19.3867 183.223 18.8547 183.597 18.444C183.989 18.0147 184.502 17.8 185.137 17.8C185.809 17.8 186.322 17.996 186.677 18.388C187.05 18.7613 187.237 19.312 187.237 20.04C187.237 20.6933 187.041 21.2347 186.649 21.664C186.275 22.0747 185.771 22.28 185.137 22.28ZM185.137 11.444C184.465 11.444 183.942 11.248 183.569 10.856C183.214 10.464 183.037 9.91333 183.037 9.204C183.037 8.55067 183.223 8.01867 183.597 7.608C183.989 7.17867 184.502 6.964 185.137 6.964C185.809 6.964 186.322 7.16 186.677 7.552C187.05 7.92533 187.237 8.476 187.237 9.204C187.237 9.85733 187.041 10.3987 186.649 10.828C186.275 11.2387 185.771 11.444 185.137 11.444ZM199.339 22V2.4H202.783L209.923 14.02L207.907 13.992L215.131 2.4H218.407V22H214.795V14.636C214.795 12.956 214.832 11.444 214.907 10.1C215 8.756 215.15 7.42133 215.355 6.096L215.803 7.3L209.727 16.68H207.879L201.999 7.384L202.391 6.096C202.596 7.34667 202.736 8.63467 202.811 9.96C202.904 11.2667 202.951 12.8253 202.951 14.636V22H199.339ZM229.807 22.28C228.332 22.28 227.016 21.9533 225.859 21.3C224.702 20.628 223.787 19.7133 223.115 18.556C222.443 17.3987 222.107 16.0827 222.107 14.608C222.107 13.1333 222.443 11.8173 223.115 10.66C223.787 9.50267 224.702 8.59733 225.859 7.944C227.016 7.272 228.332 6.936 229.807 6.936C231.263 6.936 232.57 7.272 233.727 7.944C234.884 8.59733 235.79 9.50267 236.443 10.66C237.115 11.8173 237.451 13.1333 237.451 14.608C237.451 16.0827 237.115 17.3987 236.443 18.556C235.79 19.7133 234.884 20.628 233.727 21.3C232.57 21.9533 231.263 22.28 229.807 22.28ZM229.807 19.228C230.61 19.228 231.319 19.0227 231.935 18.612C232.57 18.2013 233.064 17.6507 233.419 16.96C233.792 16.2693 233.97 15.4853 233.951 14.608C233.97 13.712 233.792 12.9187 233.419 12.228C233.064 11.5373 232.57 10.996 231.935 10.604C231.319 10.1933 230.61 9.988 229.807 9.988C229.004 9.988 228.276 10.1933 227.623 10.604C226.988 10.996 226.494 11.5467 226.139 12.256C225.784 12.9467 225.607 13.7307 225.607 14.608C225.607 15.4853 225.784 16.2693 226.139 16.96C226.494 17.6507 226.988 18.2013 227.623 18.612C228.276 19.0227 229.004 19.228 229.807 19.228ZM246.468 22.28C245.161 22.28 243.985 21.9533 242.94 21.3C241.913 20.628 241.092 19.7227 240.476 18.584C239.878 17.4267 239.58 16.1013 239.58 14.608C239.58 13.1333 239.878 11.8173 240.476 10.66C241.073 9.50267 241.885 8.59733 242.912 7.944C243.957 7.272 245.133 6.936 246.44 6.936C247.149 6.936 247.83 7.048 248.484 7.272C249.156 7.496 249.753 7.804 250.276 8.196C250.798 8.56933 251.209 8.98933 251.508 9.456C251.825 9.92267 252.002 10.408 252.04 10.912L251.116 11.024V1.28H254.56V22H251.228L251.144 18.528L251.816 18.584C251.797 19.0507 251.629 19.4987 251.312 19.928C251.013 20.3573 250.621 20.7493 250.136 21.104C249.65 21.4587 249.081 21.748 248.428 21.972C247.793 22.1773 247.14 22.28 246.468 22.28ZM247.14 19.368C247.942 19.368 248.652 19.1627 249.268 18.752C249.884 18.3413 250.36 17.7813 250.696 17.072C251.05 16.3627 251.228 15.5413 251.228 14.608C251.228 13.6933 251.05 12.8813 250.696 12.172C250.36 11.444 249.884 10.884 249.268 10.492C248.652 10.0813 247.942 9.876 247.14 9.876C246.337 9.876 245.628 10.0813 245.012 10.492C244.396 10.884 243.91 11.444 243.556 12.172C243.22 12.8813 243.052 13.6933 243.052 14.608C243.052 15.5413 243.22 16.3627 243.556 17.072C243.91 17.7813 244.396 18.3413 245.012 18.752C245.628 19.1627 246.337 19.368 247.14 19.368ZM265.385 22.28C263.836 22.28 262.464 21.9533 261.269 21.3C260.093 20.6467 259.169 19.76 258.497 18.64C257.844 17.5013 257.517 16.204 257.517 14.748C257.517 13.5907 257.704 12.536 258.077 11.584C258.45 10.632 258.964 9.81067 259.617 9.12C260.289 8.41067 261.082 7.86933 261.997 7.496C262.93 7.104 263.948 6.908 265.049 6.908C266.02 6.908 266.925 7.09467 267.765 7.468C268.605 7.84133 269.333 8.35467 269.949 9.008C270.565 9.64267 271.032 10.408 271.349 11.304C271.685 12.1813 271.844 13.1427 271.825 14.188L271.797 15.392H259.841L259.197 13.04H268.913L268.465 13.516V12.9C268.409 12.3213 268.222 11.8173 267.905 11.388C267.588 10.94 267.177 10.5947 266.673 10.352C266.188 10.0907 265.646 9.96 265.049 9.96C264.134 9.96 263.36 10.1373 262.725 10.492C262.109 10.8467 261.642 11.36 261.325 12.032C261.008 12.6853 260.849 13.5067 260.849 14.496C260.849 15.448 261.045 16.2787 261.437 16.988C261.848 17.6973 262.417 18.248 263.145 18.64C263.892 19.0133 264.76 19.2 265.749 19.2C266.44 19.2 267.074 19.088 267.653 18.864C268.232 18.64 268.857 18.2387 269.529 17.66L271.237 20.04C270.733 20.5067 270.154 20.908 269.501 21.244C268.866 21.5613 268.194 21.8133 267.485 22C266.776 22.1867 266.076 22.28 265.385 22.28ZM274.875 22V7.244H278.263L278.319 11.948L277.843 10.884C278.049 10.1373 278.403 9.46533 278.907 8.868C279.411 8.27067 279.99 7.804 280.643 7.468C281.315 7.11333 282.015 6.936 282.743 6.936C283.061 6.936 283.359 6.964 283.639 7.02C283.938 7.076 284.181 7.14133 284.367 7.216L283.443 10.996C283.238 10.884 282.986 10.7907 282.687 10.716C282.389 10.6413 282.09 10.604 281.791 10.604C281.325 10.604 280.877 10.6973 280.447 10.884C280.037 11.052 279.673 11.2947 279.355 11.612C279.038 11.9293 278.786 12.3027 278.599 12.732C278.431 13.1427 278.347 13.6093 278.347 14.132V22H274.875ZM286.661 22V7.244H290.021L290.077 10.268L289.433 10.604C289.619 9.932 289.983 9.32533 290.525 8.784C291.066 8.224 291.71 7.776 292.457 7.44C293.203 7.104 293.969 6.936 294.753 6.936C295.873 6.936 296.806 7.16 297.553 7.608C298.318 8.056 298.887 8.728 299.261 9.624C299.653 10.52 299.849 11.64 299.849 12.984V22H296.405V13.236C296.405 12.4893 296.302 11.8733 296.097 11.388C295.891 10.884 295.574 10.52 295.145 10.296C294.715 10.0533 294.193 9.94133 293.577 9.96C293.073 9.96 292.606 10.044 292.177 10.212C291.766 10.3613 291.402 10.5853 291.085 10.884C290.786 11.164 290.543 11.4907 290.357 11.864C290.189 12.2373 290.105 12.648 290.105 13.096V22H288.397C288.061 22 287.743 22 287.445 22C287.165 22 286.903 22 286.661 22ZM11.58 61L5.476 41.4H9.284L12.756 52.964C12.868 53.3187 12.9707 53.7107 13.064 54.14C13.1573 54.5693 13.2413 54.9987 13.316 55.428C13.3907 55.8387 13.456 56.2213 13.512 56.576C13.568 56.9307 13.624 57.2293 13.68 57.472L12.924 57.444C13.148 56.5667 13.3253 55.8573 13.456 55.316C13.5867 54.7747 13.6987 54.3267 13.792 53.972C13.904 53.5987 14.016 53.2533 14.128 52.936L17.432 44.48H20.54L23.76 52.936C23.9467 53.4587 24.1147 53.9627 24.264 54.448C24.4133 54.9147 24.5347 55.3813 24.628 55.848C24.74 56.296 24.8427 56.7627 24.936 57.248L24.264 57.388C24.3387 56.94 24.3947 56.576 24.432 56.296C24.4693 56.016 24.5067 55.764 24.544 55.54C24.5813 55.316 24.6187 55.1013 24.656 54.896C24.6933 54.672 24.7493 54.4107 24.824 54.112C24.9173 53.7947 25.0293 53.3933 25.16 52.908L28.604 41.4H32.384L26.252 61H23.62L18.636 49.072L18.972 49.184L14.24 61H11.58ZM39.7403 61.28C38.527 61.28 37.4257 60.944 36.4363 60.272C35.447 59.6 34.6537 58.6853 34.0563 57.528C33.459 56.3707 33.1603 55.0547 33.1603 53.58C33.1603 52.1053 33.459 50.7893 34.0563 49.632C34.6537 48.4747 35.4657 47.5693 36.4923 46.916C37.519 46.2627 38.6763 45.936 39.9643 45.936C40.711 45.936 41.3923 46.048 42.0083 46.272C42.6243 46.4773 43.1657 46.776 43.6323 47.168C44.099 47.56 44.4817 48.008 44.7803 48.512C45.0977 49.016 45.3123 49.5573 45.4243 50.136L44.6683 49.94V46.244H48.1403V61H44.6403V57.472L45.4523 57.332C45.3217 57.836 45.079 58.3307 44.7243 58.816C44.3883 59.2827 43.959 59.7027 43.4363 60.076C42.9323 60.4307 42.363 60.72 41.7283 60.944C41.1123 61.168 40.4497 61.28 39.7403 61.28ZM40.6923 58.228C41.495 58.228 42.2043 58.032 42.8203 57.64C43.4363 57.248 43.9123 56.7067 44.2483 56.016C44.603 55.3067 44.7803 54.4947 44.7803 53.58C44.7803 52.684 44.603 51.8907 44.2483 51.2C43.9123 50.5093 43.4363 49.968 42.8203 49.576C42.2043 49.184 41.495 48.988 40.6923 48.988C39.8897 48.988 39.1803 49.184 38.5643 49.576C37.967 49.968 37.5003 50.5093 37.1643 51.2C36.8283 51.8907 36.6603 52.684 36.6603 53.58C36.6603 54.4947 36.8283 55.3067 37.1643 56.016C37.5003 56.7067 37.967 57.248 38.5643 57.64C39.1803 58.032 39.8897 58.228 40.6923 58.228ZM52.1332 61V46.244H55.5212L55.5772 50.948L55.1012 49.884C55.3065 49.1373 55.6612 48.4653 56.1652 47.868C56.6692 47.2707 57.2479 46.804 57.9012 46.468C58.5732 46.1133 59.2732 45.936 60.0012 45.936C60.3185 45.936 60.6172 45.964 60.8972 46.02C61.1959 46.076 61.4385 46.1413 61.6252 46.216L60.7012 49.996C60.4959 49.884 60.2439 49.7907 59.9452 49.716C59.6465 49.6413 59.3479 49.604 59.0492 49.604C58.5825 49.604 58.1345 49.6973 57.7052 49.884C57.2945 50.052 56.9305 50.2947 56.6132 50.612C56.2959 50.9293 56.0439 51.3027 55.8572 51.732C55.6892 52.1427 55.6052 52.6093 55.6052 53.132V61H52.1332ZM65.2623 61V44.928C65.2623 44.032 65.4583 43.2387 65.8503 42.548C66.2423 41.8387 66.7837 41.288 67.4743 40.896C68.165 40.4853 68.9677 40.28 69.8823 40.28C70.517 40.28 71.105 40.392 71.6463 40.616C72.1877 40.8213 72.645 41.1107 73.0183 41.484L71.9543 44.088C71.7117 43.8827 71.4503 43.724 71.1703 43.612C70.909 43.5 70.657 43.444 70.4143 43.444C70.041 43.444 69.7237 43.5093 69.4623 43.64C69.2197 43.752 69.033 43.9293 68.9023 44.172C68.7903 44.4147 68.7343 44.704 68.7343 45.04V61H66.9983C66.6623 61 66.345 61 66.0463 61C65.7663 61 65.505 61 65.2623 61ZM62.9663 49.576V46.552H72.0663V49.576H62.9663ZM79.9357 61.28C78.7223 61.28 77.621 60.944 76.6317 60.272C75.6423 59.6 74.849 58.6853 74.2517 57.528C73.6543 56.3707 73.3557 55.0547 73.3557 53.58C73.3557 52.1053 73.6543 50.7893 74.2517 49.632C74.849 48.4747 75.661 47.5693 76.6877 46.916C77.7143 46.2627 78.8717 45.936 80.1597 45.936C80.9063 45.936 81.5877 46.048 82.2037 46.272C82.8197 46.4773 83.361 46.776 83.8277 47.168C84.2943 47.56 84.677 48.008 84.9757 48.512C85.293 49.016 85.5077 49.5573 85.6197 50.136L84.8637 49.94V46.244H88.3357V61H84.8357V57.472L85.6477 57.332C85.517 57.836 85.2743 58.3307 84.9197 58.816C84.5837 59.2827 84.1543 59.7027 83.6317 60.076C83.1277 60.4307 82.5583 60.72 81.9237 60.944C81.3077 61.168 80.645 61.28 79.9357 61.28ZM80.8877 58.228C81.6903 58.228 82.3997 58.032 83.0157 57.64C83.6317 57.248 84.1077 56.7067 84.4437 56.016C84.7983 55.3067 84.9757 54.4947 84.9757 53.58C84.9757 52.684 84.7983 51.8907 84.4437 51.2C84.1077 50.5093 83.6317 49.968 83.0157 49.576C82.3997 49.184 81.6903 48.988 80.8877 48.988C80.085 48.988 79.3757 49.184 78.7597 49.576C78.1623 49.968 77.6957 50.5093 77.3597 51.2C77.0237 51.8907 76.8557 52.684 76.8557 53.58C76.8557 54.4947 77.0237 55.3067 77.3597 56.016C77.6957 56.7067 78.1623 57.248 78.7597 57.64C79.3757 58.032 80.085 58.228 80.8877 58.228ZM92.3285 61V46.244H95.7165L95.7725 50.948L95.2965 49.884C95.5018 49.1373 95.8565 48.4653 96.3605 47.868C96.8645 47.2707 97.4432 46.804 98.0965 46.468C98.7685 46.1133 99.4685 45.936 100.197 45.936C100.514 45.936 100.813 45.964 101.093 46.02C101.391 46.076 101.634 46.1413 101.821 46.216L100.897 49.996C100.691 49.884 100.439 49.7907 100.141 49.716C99.8418 49.6413 99.5432 49.604 99.2445 49.604C98.7778 49.604 98.3298 49.6973 97.9005 49.884C97.4898 50.052 97.1258 50.2947 96.8085 50.612C96.4912 50.9293 96.2392 51.3027 96.0525 51.732C95.8845 52.1427 95.8005 52.6093 95.8005 53.132V61H92.3285ZM110.401 61.28C108.851 61.28 107.479 60.9533 106.285 60.3C105.109 59.6467 104.185 58.76 103.513 57.64C102.859 56.5013 102.533 55.204 102.533 53.748C102.533 52.5907 102.719 51.536 103.093 50.584C103.466 49.632 103.979 48.8107 104.633 48.12C105.305 47.4107 106.098 46.8693 107.013 46.496C107.946 46.104 108.963 45.908 110.065 45.908C111.035 45.908 111.941 46.0947 112.781 46.468C113.621 46.8413 114.349 47.3547 114.965 48.008C115.581 48.6427 116.047 49.408 116.365 50.304C116.701 51.1813 116.859 52.1427 116.841 53.188L116.813 54.392H104.857L104.213 52.04H113.929L113.481 52.516V51.9C113.425 51.3213 113.238 50.8173 112.921 50.388C112.603 49.94 112.193 49.5947 111.689 49.352C111.203 49.0907 110.662 48.96 110.065 48.96C109.15 48.96 108.375 49.1373 107.741 49.492C107.125 49.8467 106.658 50.36 106.341 51.032C106.023 51.6853 105.865 52.5067 105.865 53.496C105.865 54.448 106.061 55.2787 106.453 55.988C106.863 56.6973 107.433 57.248 108.161 57.64C108.907 58.0133 109.775 58.2 110.765 58.2C111.455 58.2 112.09 58.088 112.669 57.864C113.247 57.64 113.873 57.2387 114.545 56.66L116.253 59.04C115.749 59.5067 115.17 59.908 114.517 60.244C113.882 60.5613 113.21 60.8133 112.501 61C111.791 61.1867 111.091 61.28 110.401 61.28ZM125.127 53.972C123.895 53.972 122.775 53.6827 121.767 53.104C120.759 52.5253 119.956 51.7413 119.359 50.752C118.762 49.7627 118.463 48.6613 118.463 47.448C118.463 46.5333 118.631 45.684 118.967 44.9C119.322 44.0973 119.807 43.4067 120.423 42.828C121.039 42.2307 121.748 41.764 122.551 41.428C123.354 41.092 124.212 40.924 125.127 40.924C126.023 40.924 126.872 41.092 127.675 41.428C128.478 41.764 129.178 42.2307 129.775 42.828C130.372 43.4253 130.839 44.116 131.175 44.9C131.53 45.684 131.707 46.5333 131.707 47.448C131.707 48.3627 131.53 49.2213 131.175 50.024C130.839 50.808 130.372 51.4987 129.775 52.096C129.178 52.6747 128.478 53.132 127.675 53.468C126.891 53.804 126.042 53.972 125.127 53.972ZM125.127 52.208C126.023 52.208 126.826 52.0027 127.535 51.592C128.263 51.1627 128.842 50.584 129.271 49.856C129.719 49.128 129.943 48.3253 129.943 47.448C129.943 46.5707 129.719 45.768 129.271 45.04C128.842 44.312 128.263 43.7333 127.535 43.304C126.826 42.8747 126.023 42.66 125.127 42.66C124.212 42.66 123.382 42.8747 122.635 43.304C121.907 43.7333 121.319 44.312 120.871 45.04C120.423 45.768 120.199 46.5707 120.199 47.448C120.199 48.3253 120.423 49.128 120.871 49.856C121.319 50.584 121.907 51.1627 122.635 51.592C123.382 52.0027 124.212 52.208 125.127 52.208ZM126.051 50.724L125.015 48.036L126.667 47.616L128.011 50.724H126.051ZM122.551 50.724V44.032H125.743C126.396 44.032 126.919 44.228 127.311 44.62C127.722 44.9933 127.927 45.4787 127.927 46.076C127.927 46.692 127.712 47.196 127.283 47.588C126.872 47.98 126.359 48.176 125.743 48.176H123.923L124.371 47.896V50.724H122.551ZM124.371 47.14L123.951 46.944H125.183C125.482 46.944 125.715 46.8787 125.883 46.748C126.07 46.6173 126.163 46.4493 126.163 46.244C126.163 46.02 126.079 45.852 125.911 45.74C125.762 45.6093 125.538 45.544 125.239 45.544H123.895L124.371 45.32V47.14ZM142.341 61V57.78H145.561V44.62H142.341V41.4H152.421V44.62H149.201V57.78H152.421V61H142.341ZM156.478 61V57.78H159.698V44.62H156.478V41.4H166.558V44.62H163.338V57.78H166.558V61H156.478Z" fill="white"/>
</g>
<defs>
<filter id="filter0_d_102_289" x="0.476013" y="0.280029" width="304.372" height="70" filterUnits="userSpaceOnUse" color-interpolation-filters="sRGB">
<feFlood flood-opacity="0" result="BackgroundImageFix"/>
<feColorMatrix in="SourceAlpha" type="matrix" values="0 0 0 0 0 0 0 0 0 0 0 0 0 0 0 0 0 0 127 0" result="hardAlpha"/>
<feOffset dy="4"/>
<feGaussianBlur stdDeviation="2.5"/>
<feComposite in2="hardAlpha" operator="out"/>
<feColorMatrix type="matrix" values="0 0 0 0 0 0 0 0 0 0 0 0 0 0 0 0 0 0 1 0"/>
<feBlend mode="normal" in2="BackgroundImageFix" result="effect1_dropShadow_102_289"/>
<feBlend mode="normal" in="SourceGraphic" in2="effect1_dropShadow_102_289" result="shape"/>
</filter>
</defs>
</svg>
