<svg width="161" height="63" viewBox="0 0 161 63" fill="none" xmlns="http://www.w3.org/2000/svg">
<g filter="url(#filter0_d_135_648)">
<path d="M5.256 19V2.2H16.248V5.032H8.328V16.168H16.344V19H5.256ZM6.696 11.8V9.016H15.024V11.8H6.696ZM18.384 19L24.936 2.2H27.864L34.368 19H31.128L27.528 9.448C27.448 9.256 27.336 8.952 27.192 8.536C27.064 8.12 26.92 7.672 26.76 7.192C26.6 6.696 26.456 6.24 26.328 5.824C26.2 5.392 26.104 5.08 26.04 4.888L26.64 4.864C26.544 5.184 26.432 5.544 26.304 5.944C26.176 6.344 26.04 6.76 25.896 7.192C25.752 7.624 25.608 8.04 25.464 8.44C25.336 8.84 25.216 9.2 25.104 9.52L21.504 19H18.384ZM21.36 15.16L22.44 12.448H30.096L31.248 15.16H21.36ZM49.3965 19.24C48.4205 19.24 47.5245 19.12 46.7085 18.88C45.8925 18.624 45.1565 18.248 44.5005 17.752C43.8445 17.256 43.2605 16.656 42.7485 15.952L44.7885 13.648C45.5725 14.736 46.3405 15.488 47.0925 15.904C47.8445 16.32 48.6925 16.528 49.6365 16.528C50.1805 16.528 50.6765 16.448 51.1245 16.288C51.5725 16.112 51.9245 15.88 52.1805 15.592C52.4365 15.288 52.5645 14.944 52.5645 14.56C52.5645 14.288 52.5085 14.04 52.3965 13.816C52.3005 13.576 52.1485 13.368 51.9405 13.192C51.7325 13 51.4765 12.824 51.1725 12.664C50.8685 12.504 50.5245 12.368 50.1405 12.256C49.7565 12.144 49.3325 12.04 48.8685 11.944C47.9885 11.768 47.2205 11.536 46.5645 11.248C45.9085 10.944 45.3565 10.576 44.9085 10.144C44.4605 9.696 44.1325 9.2 43.9245 8.656C43.7165 8.096 43.6125 7.464 43.6125 6.76C43.6125 6.056 43.7645 5.408 44.0685 4.816C44.3885 4.224 44.8205 3.712 45.3645 3.28C45.9085 2.848 46.5405 2.512 47.2605 2.272C47.9805 2.032 48.7565 1.912 49.5885 1.912C50.5325 1.912 51.3725 2.024 52.1085 2.248C52.8605 2.472 53.5165 2.808 54.0765 3.256C54.6525 3.688 55.1245 4.216 55.4925 4.84L53.4285 6.88C53.1085 6.384 52.7485 5.976 52.3485 5.656C51.9485 5.32 51.5165 5.072 51.0525 4.912C50.5885 4.736 50.1005 4.648 49.5885 4.648C49.0125 4.648 48.5085 4.728 48.0765 4.888C47.6605 5.048 47.3325 5.28 47.0925 5.584C46.8525 5.872 46.7325 6.224 46.7325 6.64C46.7325 6.96 46.8045 7.248 46.9485 7.504C47.0925 7.744 47.2925 7.96 47.5485 8.152C47.8205 8.344 48.1645 8.512 48.5805 8.656C48.9965 8.8 49.4685 8.928 49.9965 9.04C50.8765 9.216 51.6685 9.456 52.3725 9.76C53.0765 10.048 53.6765 10.4 54.1725 10.816C54.6685 11.216 55.0445 11.68 55.3005 12.208C55.5565 12.72 55.6845 13.296 55.6845 13.936C55.6845 15.04 55.4205 15.992 54.8925 16.792C54.3805 17.576 53.6525 18.184 52.7085 18.616C51.7645 19.032 50.6605 19.24 49.3965 19.24ZM59.1154 19V2.2H66.0994C67.0594 2.2 67.9234 2.432 68.6914 2.896C69.4754 3.36 70.0994 3.992 70.5634 4.792C71.0274 5.592 71.2594 6.488 71.2594 7.48C71.2594 8.488 71.0274 9.4 70.5634 10.216C70.0994 11.016 69.4754 11.656 68.6914 12.136C67.9234 12.616 67.0594 12.856 66.0994 12.856H62.2354V19H59.1154ZM62.2354 9.976H65.8834C66.2834 9.976 66.6434 9.864 66.9634 9.64C67.2994 9.416 67.5634 9.12 67.7554 8.752C67.9634 8.384 68.0674 7.968 68.0674 7.504C68.0674 7.04 67.9634 6.632 67.7554 6.28C67.5634 5.912 67.2994 5.624 66.9634 5.416C66.6434 5.192 66.2834 5.08 65.8834 5.08H62.2354V9.976ZM81.8087 19.24C80.6087 19.24 79.4967 19.024 78.4727 18.592C77.4487 18.16 76.5527 17.56 75.7847 16.792C75.0327 16.008 74.4487 15.088 74.0327 14.032C73.6167 12.976 73.4087 11.824 73.4087 10.576C73.4087 9.328 73.6167 8.176 74.0327 7.12C74.4487 6.064 75.0327 5.152 75.7847 4.384C76.5527 3.6 77.4487 2.992 78.4727 2.56C79.4967 2.128 80.6087 1.912 81.8087 1.912C83.0247 1.912 84.1447 2.128 85.1687 2.56C86.1927 2.992 87.0807 3.6 87.8327 4.384C88.5847 5.168 89.1687 6.088 89.5847 7.144C90.0007 8.184 90.2087 9.328 90.2087 10.576C90.2087 11.808 90.0007 12.952 89.5847 14.008C89.1687 15.064 88.5847 15.984 87.8327 16.768C87.0807 17.552 86.1927 18.16 85.1687 18.592C84.1447 19.024 83.0247 19.24 81.8087 19.24ZM81.8087 16.264C82.5767 16.264 83.2727 16.128 83.8967 15.856C84.5367 15.568 85.0887 15.168 85.5527 14.656C86.0167 14.128 86.3767 13.52 86.6327 12.832C86.9047 12.144 87.0407 11.392 87.0407 10.576C87.0407 9.76 86.9047 9.008 86.6327 8.32C86.3767 7.632 86.0167 7.032 85.5527 6.52C85.0887 5.992 84.5367 5.592 83.8967 5.32C83.2727 5.032 82.5767 4.888 81.8087 4.888C81.0567 4.888 80.3607 5.032 79.7207 5.32C79.0807 5.592 78.5287 5.984 78.0647 6.496C77.6007 7.008 77.2407 7.608 76.9847 8.296C76.7287 8.984 76.6007 9.744 76.6007 10.576C76.6007 11.392 76.7287 12.152 76.9847 12.856C77.2407 13.544 77.6007 14.144 78.0647 14.656C78.5287 15.168 79.0807 15.568 79.7207 15.856C80.3607 16.128 81.0567 16.264 81.8087 16.264ZM93.5919 19V2.2H100.888C101.896 2.2 102.816 2.44 103.648 2.92C104.48 3.384 105.136 4.024 105.616 4.84C106.112 5.64 106.36 6.544 106.36 7.552C106.36 8.512 106.112 9.4 105.616 10.216C105.136 11.016 104.48 11.656 103.648 12.136C102.832 12.6 101.912 12.832 100.888 12.832H96.6399V19H93.5919ZM103.336 19L99.0639 11.416L102.28 10.816L107.032 19.024L103.336 19ZM96.6399 10.12H100.912C101.376 10.12 101.776 10.016 102.112 9.808C102.464 9.584 102.736 9.28 102.928 8.896C103.12 8.512 103.216 8.088 103.216 7.624C103.216 7.096 103.096 6.64 102.856 6.256C102.616 5.872 102.28 5.568 101.848 5.344C101.416 5.12 100.92 5.008 100.36 5.008H96.6399V10.12ZM113.218 19V5.08H108.418V2.2H121.282V5.08H116.338V19H113.218ZM129.67 19.24C128.694 19.24 127.798 19.12 126.982 18.88C126.166 18.624 125.43 18.248 124.774 17.752C124.118 17.256 123.534 16.656 123.022 15.952L125.062 13.648C125.846 14.736 126.614 15.488 127.366 15.904C128.118 16.32 128.966 16.528 129.91 16.528C130.454 16.528 130.95 16.448 131.398 16.288C131.846 16.112 132.198 15.88 132.454 15.592C132.71 15.288 132.838 14.944 132.838 14.56C132.838 14.288 132.782 14.04 132.67 13.816C132.574 13.576 132.422 13.368 132.214 13.192C132.006 13 131.75 12.824 131.446 12.664C131.142 12.504 130.798 12.368 130.414 12.256C130.03 12.144 129.606 12.04 129.142 11.944C128.262 11.768 127.494 11.536 126.838 11.248C126.182 10.944 125.63 10.576 125.182 10.144C124.734 9.696 124.406 9.2 124.198 8.656C123.99 8.096 123.886 7.464 123.886 6.76C123.886 6.056 124.038 5.408 124.342 4.816C124.662 4.224 125.094 3.712 125.638 3.28C126.182 2.848 126.814 2.512 127.534 2.272C128.254 2.032 129.03 1.912 129.862 1.912C130.806 1.912 131.646 2.024 132.382 2.248C133.134 2.472 133.79 2.808 134.35 3.256C134.926 3.688 135.398 4.216 135.766 4.84L133.702 6.88C133.382 6.384 133.022 5.976 132.622 5.656C132.222 5.32 131.79 5.072 131.326 4.912C130.862 4.736 130.374 4.648 129.862 4.648C129.286 4.648 128.782 4.728 128.35 4.888C127.934 5.048 127.606 5.28 127.366 5.584C127.126 5.872 127.006 6.224 127.006 6.64C127.006 6.96 127.078 7.248 127.222 7.504C127.366 7.744 127.566 7.96 127.822 8.152C128.094 8.344 128.438 8.512 128.854 8.656C129.27 8.8 129.742 8.928 130.27 9.04C131.15 9.216 131.942 9.456 132.646 9.76C133.35 10.048 133.95 10.4 134.446 10.816C134.942 11.216 135.318 11.68 135.574 12.208C135.83 12.72 135.958 13.296 135.958 13.936C135.958 15.04 135.694 15.992 135.166 16.792C134.654 17.576 133.926 18.184 132.982 18.616C132.038 19.032 130.934 19.24 129.67 19.24ZM145.893 10.936V2.2H148.005L151.389 7.816H150.045L153.405 2.2H155.613V10.936H153.285L153.333 4.024L154.605 3.76L151.485 9.112H149.901L146.613 3.568L148.149 3.856L148.197 10.936H145.893ZM140.109 10.936V2.776H142.341V10.936H140.109ZM137.877 4.264V2.2H144.669V4.264H137.877ZM5.256 53V36.2H8.376V53H5.256ZM6.696 46.112V43.28H15.36V46.112H6.696ZM6.696 39.08V36.2H16.392V39.08H6.696ZM19.3536 53V50.24H22.1136V38.96H19.3536V36.2H27.9936V38.96H25.2336V50.24H27.9936V53H19.3536ZM31.9748 53V36.2H35.0948V53H31.9748ZM33.4148 46.112V43.28H42.0788V46.112H33.4148ZM33.4148 39.08V36.2H43.1108V39.08H33.4148ZM43.2746 53L49.8266 36.2H52.7546L59.2586 53H56.0186L52.4186 43.448C52.3386 43.256 52.2266 42.952 52.0826 42.536C51.9546 42.12 51.8106 41.672 51.6506 41.192C51.4906 40.696 51.3466 40.24 51.2186 39.824C51.0906 39.392 50.9946 39.08 50.9306 38.888L51.5306 38.864C51.4346 39.184 51.3226 39.544 51.1946 39.944C51.0666 40.344 50.9306 40.76 50.7866 41.192C50.6426 41.624 50.4986 42.04 50.3546 42.44C50.2266 42.84 50.1066 43.2 49.9946 43.52L46.3946 53H43.2746ZM46.2506 49.16L47.3306 46.448H54.9866L56.1386 49.16H46.2506ZM68.6471 53L67.8551 51.032L72.8951 45.392C73.1831 45.104 73.4791 44.776 73.7831 44.408C74.0871 44.024 74.3751 43.632 74.6471 43.232C74.9351 42.816 75.1671 42.416 75.3431 42.032C75.5191 41.632 75.6071 41.264 75.6071 40.928C75.6071 40.496 75.5111 40.12 75.3191 39.8C75.1431 39.48 74.8871 39.232 74.5511 39.056C74.2151 38.88 73.7991 38.792 73.3031 38.792C72.8711 38.792 72.4471 38.92 72.0311 39.176C71.6311 39.416 71.2551 39.768 70.9031 40.232C70.5671 40.68 70.2871 41.216 70.0631 41.84L67.7111 40.448C67.9991 39.52 68.4311 38.72 69.0071 38.048C69.5991 37.36 70.2871 36.832 71.0711 36.464C71.8711 36.096 72.7351 35.912 73.6631 35.912C74.6231 35.912 75.4791 36.112 76.2311 36.512C76.9831 36.912 77.5751 37.464 78.0071 38.168C78.4551 38.872 78.6791 39.696 78.6791 40.64C78.6791 40.992 78.6391 41.36 78.5591 41.744C78.4791 42.112 78.3511 42.504 78.1751 42.92C78.0151 43.32 77.7991 43.744 77.5271 44.192C77.2551 44.624 76.9271 45.08 76.5431 45.56C76.1751 46.04 75.7511 46.544 75.2711 47.072L71.4551 51.224L70.9751 50.12H79.2791V53H68.6471ZM86.1876 53.24C84.9396 53.24 83.8516 52.968 82.9236 52.424C81.9956 51.864 81.1396 50.92 80.3556 49.592L82.7076 48.104C83.0756 48.696 83.4516 49.176 83.8356 49.544C84.2356 49.896 84.6356 50.16 85.0356 50.336C85.4516 50.496 85.8916 50.576 86.3556 50.576C86.8836 50.576 87.3636 50.448 87.7956 50.192C88.2436 49.936 88.5956 49.584 88.8516 49.136C89.1236 48.688 89.2596 48.176 89.2596 47.6C89.2596 47.024 89.1476 46.536 88.9236 46.136C88.7156 45.736 88.4036 45.432 87.9876 45.224C87.5876 45 87.0996 44.888 86.5236 44.888C86.2676 44.888 85.9956 44.92 85.7076 44.984C85.4196 45.032 85.1156 45.112 84.7956 45.224C84.4756 45.32 84.1236 45.44 83.7396 45.584L82.9716 43.544L87.7476 38.264L88.4676 38.96L81.3876 38.912V36.152H91.2516L91.8276 37.304L86.3076 43.328L85.5876 42.536C85.7156 42.472 85.9236 42.416 86.2116 42.368C86.5156 42.304 86.7796 42.272 87.0036 42.272C87.7076 42.272 88.3796 42.408 89.0196 42.68C89.6596 42.936 90.2116 43.304 90.6756 43.784C91.1556 44.264 91.5316 44.824 91.8036 45.464C92.0756 46.088 92.2116 46.768 92.2116 47.504C92.2116 48.608 91.9396 49.592 91.3956 50.456C90.8676 51.304 90.1476 51.984 89.2356 52.496C88.3236 52.992 87.3076 53.24 86.1876 53.24Z" fill="white"/>
</g>
<defs>
<filter id="filter0_d_135_648" x="0.255981" y="0.911987" width="160.357" height="61.328" filterUnits="userSpaceOnUse" color-interpolation-filters="sRGB">
<feFlood flood-opacity="0" result="BackgroundImageFix"/>
<feColorMatrix in="SourceAlpha" type="matrix" values="0 0 0 0 0 0 0 0 0 0 0 0 0 0 0 0 0 0 127 0" result="hardAlpha"/>
<feOffset dy="4"/>
<feGaussianBlur stdDeviation="2.5"/>
<feComposite in2="hardAlpha" operator="out"/>
<feColorMatrix type="matrix" values="0 0 0 0 0 0 0 0 0 0 0 0 0 0 0 0 0 0 1 0"/>
<feBlend mode="normal" in2="BackgroundImageFix" result="effect1_dropShadow_135_648"/>
<feBlend mode="normal" in="SourceGraphic" in2="effect1_dropShadow_135_648" result="shape"/>
</filter>
</defs>
</svg>
