<svg width="198" height="64" viewBox="0 0 198 64" fill="none" xmlns="http://www.w3.org/2000/svg">
<g filter="url(#filter0_d_102_388)">
<path d="M5.256 20V3.2H12.552C13.56 3.2 14.48 3.44 15.312 3.92C16.144 4.384 16.8 5.024 17.28 5.84C17.776 6.64 18.024 7.544 18.024 8.552C18.024 9.512 17.776 10.4 17.28 11.216C16.8 12.016 16.144 12.656 15.312 13.136C14.496 13.6 13.576 13.832 12.552 13.832H8.304V20H5.256ZM15 20L10.728 12.416L13.944 11.816L18.696 20.024L15 20ZM8.304 11.12H12.576C13.04 11.12 13.44 11.016 13.776 10.808C14.128 10.584 14.4 10.28 14.592 9.896C14.784 9.512 14.88 9.088 14.88 8.624C14.88 8.096 14.76 7.64 14.52 7.256C14.28 6.872 13.944 6.568 13.512 6.344C13.08 6.12 12.584 6.008 12.024 6.008H8.304V11.12ZM26.9216 20.24C25.5936 20.24 24.4176 19.96 23.3936 19.4C22.3856 18.84 21.5936 18.08 21.0176 17.12C20.4576 16.144 20.1776 15.032 20.1776 13.784C20.1776 12.792 20.3376 11.888 20.6576 11.072C20.9776 10.256 21.4176 9.552 21.9776 8.96C22.5536 8.352 23.2336 7.888 24.0176 7.568C24.8176 7.232 25.6896 7.064 26.6336 7.064C27.4656 7.064 28.2416 7.224 28.9616 7.544C29.6816 7.864 30.3056 8.304 30.8336 8.864C31.3616 9.408 31.7616 10.064 32.0336 10.832C32.3216 11.584 32.4576 12.408 32.4416 13.304L32.4176 14.336H22.1696L21.6176 12.32H29.9456L29.5616 12.728V12.2C29.5136 11.704 29.3536 11.272 29.0816 10.904C28.8096 10.52 28.4576 10.224 28.0256 10.016C27.6096 9.792 27.1456 9.68 26.6336 9.68C25.8496 9.68 25.1856 9.832 24.6416 10.136C24.1136 10.44 23.7136 10.88 23.4416 11.456C23.1696 12.016 23.0336 12.72 23.0336 13.568C23.0336 14.384 23.2016 15.096 23.5376 15.704C23.8896 16.312 24.3776 16.784 25.0016 17.12C25.6416 17.44 26.3856 17.6 27.2336 17.6C27.8256 17.6 28.3696 17.504 28.8656 17.312C29.3616 17.12 29.8976 16.776 30.4736 16.28L31.9376 18.32C31.5056 18.72 31.0096 19.064 30.4496 19.352C29.9056 19.624 29.3296 19.84 28.7216 20C28.1136 20.16 27.5136 20.24 26.9216 20.24ZM39.2801 20.24C38.1601 20.24 37.1521 20.056 36.2561 19.688C35.3761 19.304 34.6561 18.76 34.0961 18.056L36.0161 16.4C36.4961 16.944 37.0321 17.336 37.6241 17.576C38.2161 17.816 38.8401 17.936 39.4961 17.936C39.7681 17.936 40.0081 17.904 40.2161 17.84C40.4401 17.776 40.6321 17.68 40.7921 17.552C40.9521 17.424 41.0721 17.28 41.1521 17.12C41.2481 16.944 41.2961 16.752 41.2961 16.544C41.2961 16.16 41.1521 15.856 40.8641 15.632C40.7041 15.52 40.4481 15.4 40.0961 15.272C39.7601 15.144 39.3201 15.016 38.7761 14.888C37.9121 14.664 37.1921 14.408 36.6161 14.12C36.0401 13.816 35.5921 13.48 35.2721 13.112C35.0001 12.808 34.7921 12.464 34.6481 12.08C34.5201 11.696 34.4561 11.28 34.4561 10.832C34.4561 10.272 34.5761 9.768 34.8161 9.32C35.0721 8.856 35.4161 8.456 35.8481 8.12C36.2801 7.784 36.7841 7.528 37.3601 7.352C37.9361 7.176 38.5361 7.088 39.1601 7.088C39.8001 7.088 40.4161 7.168 41.0081 7.328C41.6161 7.488 42.1761 7.72 42.6881 8.024C43.2161 8.312 43.6641 8.664 44.0321 9.08L42.4001 10.88C42.0961 10.592 41.7601 10.336 41.3921 10.112C41.0401 9.888 40.6801 9.712 40.3121 9.584C39.9441 9.44 39.6001 9.368 39.2801 9.368C38.9761 9.368 38.7041 9.4 38.4641 9.464C38.2241 9.512 38.0241 9.592 37.8641 9.704C37.7041 9.816 37.5761 9.96 37.4801 10.136C37.4001 10.296 37.3601 10.488 37.3601 10.712C37.3761 10.904 37.4241 11.088 37.5041 11.264C37.6001 11.424 37.7281 11.56 37.8881 11.672C38.0641 11.784 38.3281 11.912 38.6801 12.056C39.0321 12.2 39.4881 12.336 40.0481 12.464C40.8321 12.672 41.4881 12.904 42.0161 13.16C42.5441 13.416 42.9601 13.712 43.2641 14.048C43.5681 14.336 43.7841 14.672 43.9121 15.056C44.0401 15.44 44.1041 15.864 44.1041 16.328C44.1041 17.08 43.8881 17.752 43.4561 18.344C43.0401 18.936 42.4641 19.4 41.7281 19.736C41.0081 20.072 40.1921 20.24 39.2801 20.24ZM47.0406 20V7.352H49.9926V20H47.0406ZM48.4806 4.664C47.8886 4.664 47.4246 4.52 47.0886 4.232C46.7686 3.928 46.6086 3.504 46.6086 2.96C46.6086 2.448 46.7766 2.032 47.1126 1.712C47.4486 1.392 47.9046 1.232 48.4806 1.232C49.0886 1.232 49.5526 1.384 49.8726 1.688C50.2086 1.976 50.3766 2.4 50.3766 2.96C50.3766 3.456 50.2086 3.864 49.8726 4.184C49.5366 4.504 49.0726 4.664 48.4806 4.664ZM58.8238 20.24C57.7038 20.24 56.6958 19.96 55.7998 19.4C54.9198 18.824 54.2158 18.048 53.6878 17.072C53.1758 16.08 52.9198 14.944 52.9198 13.664C52.9198 12.4 53.1758 11.272 53.6878 10.28C54.1998 9.288 54.8958 8.512 55.7758 7.952C56.6718 7.376 57.6798 7.088 58.7998 7.088C59.4078 7.088 59.9918 7.184 60.5518 7.376C61.1278 7.568 61.6398 7.832 62.0878 8.168C62.5358 8.488 62.8878 8.848 63.1438 9.248C63.4158 9.648 63.5678 10.064 63.5998 10.496L62.8078 10.592V2.24H65.7598V20H62.9038L62.8318 17.024L63.4078 17.072C63.3918 17.472 63.2478 17.856 62.9758 18.224C62.7198 18.592 62.3838 18.928 61.9678 19.232C61.5518 19.536 61.0638 19.784 60.5038 19.976C59.9598 20.152 59.3998 20.24 58.8238 20.24ZM59.3998 17.744C60.0878 17.744 60.6958 17.568 61.2238 17.216C61.7518 16.864 62.1598 16.384 62.4478 15.776C62.7518 15.168 62.9038 14.464 62.9038 13.664C62.9038 12.88 62.7518 12.184 62.4478 11.576C62.1598 10.952 61.7518 10.472 61.2238 10.136C60.6958 9.784 60.0878 9.608 59.3998 9.608C58.7118 9.608 58.1038 9.784 57.5758 10.136C57.0478 10.472 56.6318 10.952 56.3278 11.576C56.0398 12.184 55.8958 12.88 55.8958 13.664C55.8958 14.464 56.0398 15.168 56.3278 15.776C56.6318 16.384 57.0478 16.864 57.5758 17.216C58.1038 17.568 58.7118 17.744 59.3998 17.744ZM75.0388 20.24C73.7108 20.24 72.5348 19.96 71.5108 19.4C70.5028 18.84 69.7108 18.08 69.1348 17.12C68.5748 16.144 68.2948 15.032 68.2948 13.784C68.2948 12.792 68.4548 11.888 68.7748 11.072C69.0948 10.256 69.5348 9.552 70.0948 8.96C70.6708 8.352 71.3508 7.888 72.1348 7.568C72.9348 7.232 73.8068 7.064 74.7508 7.064C75.5828 7.064 76.3588 7.224 77.0788 7.544C77.7988 7.864 78.4228 8.304 78.9508 8.864C79.4788 9.408 79.8788 10.064 80.1508 10.832C80.4388 11.584 80.5748 12.408 80.5588 13.304L80.5348 14.336H70.2868L69.7348 12.32H78.0628L77.6788 12.728V12.2C77.6308 11.704 77.4708 11.272 77.1988 10.904C76.9268 10.52 76.5748 10.224 76.1428 10.016C75.7268 9.792 75.2628 9.68 74.7508 9.68C73.9668 9.68 73.3028 9.832 72.7588 10.136C72.2308 10.44 71.8308 10.88 71.5588 11.456C71.2868 12.016 71.1508 12.72 71.1508 13.568C71.1508 14.384 71.3188 15.096 71.6548 15.704C72.0068 16.312 72.4948 16.784 73.1188 17.12C73.7588 17.44 74.5028 17.6 75.3508 17.6C75.9428 17.6 76.4868 17.504 76.9828 17.312C77.4788 17.12 78.0148 16.776 78.5908 16.28L80.0548 18.32C79.6228 18.72 79.1268 19.064 78.5668 19.352C78.0228 19.624 77.4468 19.84 76.8388 20C76.2308 20.16 75.6308 20.24 75.0388 20.24ZM83.1733 20V7.352H86.0533L86.1013 9.944L85.5493 10.232C85.7093 9.656 86.0213 9.136 86.4853 8.672C86.9493 8.192 87.5013 7.808 88.1413 7.52C88.7813 7.232 89.4373 7.088 90.1093 7.088C91.0693 7.088 91.8693 7.28 92.5093 7.664C93.1653 8.048 93.6533 8.624 93.9733 9.392C94.3093 10.16 94.4773 11.12 94.4773 12.272V20H91.5253V12.488C91.5253 11.848 91.4373 11.32 91.2613 10.904C91.0853 10.472 90.8133 10.16 90.4453 9.968C90.0773 9.76 89.6293 9.664 89.1013 9.68C88.6693 9.68 88.2693 9.752 87.9013 9.896C87.5493 10.024 87.2373 10.216 86.9653 10.472C86.7093 10.712 86.5013 10.992 86.3413 11.312C86.1973 11.632 86.1253 11.984 86.1253 12.368V20H84.6613C84.3733 20 84.1013 20 83.8453 20C83.6053 20 83.3813 20 83.1733 20ZM99.1663 20V4.136H102.118V20H99.1663ZM96.6703 10.088V7.352H104.878V10.088H96.6703ZM114.709 20V3.2H125.701V6.032H117.781V17.168H125.797V20H114.709ZM116.149 12.8V10.016H124.477V12.8H116.149ZM132.886 20L127.558 7.352H130.774L134.374 16.808L133.75 16.976L137.542 7.352H140.686L135.094 20H132.886ZM143.181 20V7.352H146.133V20H143.181ZM144.621 4.664C144.029 4.664 143.565 4.52 143.229 4.232C142.909 3.928 142.749 3.504 142.749 2.96C142.749 2.448 142.917 2.032 143.253 1.712C143.589 1.392 144.045 1.232 144.621 1.232C145.229 1.232 145.693 1.384 146.013 1.688C146.349 1.976 146.517 2.4 146.517 2.96C146.517 3.456 146.349 3.864 146.013 4.184C145.677 4.504 145.213 4.664 144.621 4.664ZM149.9 20V2.24H152.876V20H149.9ZM170.096 20V6.44L171.248 6.56L165.536 13.544L165.272 13.112H175.952V15.824H163.592L162.296 13.328L170.648 3.152H173.096V20H170.096ZM185.209 14.552V11.72H192.625V14.552H185.209ZM5.256 54V37.2H12.552C13.56 37.2 14.48 37.44 15.312 37.92C16.144 38.384 16.8 39.024 17.28 39.84C17.776 40.64 18.024 41.544 18.024 42.552C18.024 43.512 17.776 44.4 17.28 45.216C16.8 46.016 16.144 46.656 15.312 47.136C14.496 47.6 13.576 47.832 12.552 47.832H8.304V54H5.256ZM15 54L10.728 46.416L13.944 45.816L18.696 54.024L15 54ZM8.304 45.12H12.576C13.04 45.12 13.44 45.016 13.776 44.808C14.128 44.584 14.4 44.28 14.592 43.896C14.784 43.512 14.88 43.088 14.88 42.624C14.88 42.096 14.76 41.64 14.52 41.256C14.28 40.872 13.944 40.568 13.512 40.344C13.08 40.12 12.584 40.008 12.024 40.008H8.304V45.12ZM26.9216 54.24C25.5936 54.24 24.4176 53.96 23.3936 53.4C22.3856 52.84 21.5936 52.08 21.0176 51.12C20.4576 50.144 20.1776 49.032 20.1776 47.784C20.1776 46.792 20.3376 45.888 20.6576 45.072C20.9776 44.256 21.4176 43.552 21.9776 42.96C22.5536 42.352 23.2336 41.888 24.0176 41.568C24.8176 41.232 25.6896 41.064 26.6336 41.064C27.4656 41.064 28.2416 41.224 28.9616 41.544C29.6816 41.864 30.3056 42.304 30.8336 42.864C31.3616 43.408 31.7616 44.064 32.0336 44.832C32.3216 45.584 32.4576 46.408 32.4416 47.304L32.4176 48.336H22.1696L21.6176 46.32H29.9456L29.5616 46.728V46.2C29.5136 45.704 29.3536 45.272 29.0816 44.904C28.8096 44.52 28.4576 44.224 28.0256 44.016C27.6096 43.792 27.1456 43.68 26.6336 43.68C25.8496 43.68 25.1856 43.832 24.6416 44.136C24.1136 44.44 23.7136 44.88 23.4416 45.456C23.1696 46.016 23.0336 46.72 23.0336 47.568C23.0336 48.384 23.2016 49.096 23.5376 49.704C23.8896 50.312 24.3776 50.784 25.0016 51.12C25.6416 51.44 26.3856 51.6 27.2336 51.6C27.8256 51.6 28.3696 51.504 28.8656 51.312C29.3616 51.12 29.8976 50.776 30.4736 50.28L31.9376 52.32C31.5056 52.72 31.0096 53.064 30.4496 53.352C29.9056 53.624 29.3296 53.84 28.7216 54C28.1136 54.16 27.5136 54.24 26.9216 54.24ZM35.0081 54V41.352H37.9121L37.9601 43.896L37.4801 44.088C37.6241 43.672 37.8401 43.288 38.1281 42.936C38.4161 42.568 38.7601 42.256 39.1601 42C39.5601 41.728 39.9841 41.52 40.4321 41.376C40.8801 41.216 41.3361 41.136 41.8001 41.136C42.4881 41.136 43.0961 41.248 43.6241 41.472C44.1681 41.68 44.6161 42.016 44.9681 42.48C45.3361 42.944 45.6081 43.536 45.7841 44.256L45.3281 44.16L45.5201 43.776C45.6961 43.392 45.9441 43.048 46.2641 42.744C46.5841 42.424 46.9441 42.144 47.3441 41.904C47.7441 41.648 48.1601 41.456 48.5921 41.328C49.0401 41.2 49.4801 41.136 49.9121 41.136C50.8721 41.136 51.6721 41.328 52.3121 41.712C52.9521 42.096 53.4321 42.68 53.7521 43.464C54.0721 44.248 54.2321 45.216 54.2321 46.368V54H51.2561V46.56C51.2561 45.92 51.1681 45.392 50.9921 44.976C50.8321 44.56 50.5761 44.256 50.2241 44.064C49.8881 43.856 49.4641 43.752 48.9521 43.752C48.5521 43.752 48.1681 43.824 47.8001 43.968C47.4481 44.096 47.1441 44.288 46.8881 44.544C46.6321 44.784 46.4321 45.064 46.2881 45.384C46.1441 45.704 46.0721 46.056 46.0721 46.44V54H43.0961V46.536C43.0961 45.928 43.0081 45.424 42.8321 45.024C42.6561 44.608 42.4001 44.296 42.0641 44.088C41.7281 43.864 41.3201 43.752 40.8401 43.752C40.4401 43.752 40.0641 43.824 39.7121 43.968C39.3601 44.096 39.0561 44.28 38.8001 44.52C38.5441 44.76 38.3441 45.04 38.2001 45.36C38.0561 45.68 37.9841 46.032 37.9841 46.416V54H35.0081ZM62.2853 54.24C61.2453 54.24 60.3013 53.952 59.4533 53.376C58.6053 52.8 57.9253 52.016 57.4133 51.024C56.9013 50.032 56.6453 48.904 56.6453 47.64C56.6453 46.376 56.9013 45.248 57.4133 44.256C57.9253 43.264 58.6213 42.488 59.5013 41.928C60.3813 41.368 61.3733 41.088 62.4773 41.088C63.1173 41.088 63.7013 41.184 64.2293 41.376C64.7573 41.552 65.2213 41.808 65.6213 42.144C66.0213 42.48 66.3493 42.864 66.6053 43.296C66.8773 43.728 67.0613 44.192 67.1573 44.688L66.5093 44.52V41.352H69.4853V54H66.4853V50.976L67.1813 50.856C67.0693 51.288 66.8613 51.712 66.5573 52.128C66.2693 52.528 65.9013 52.888 65.4533 53.208C65.0213 53.512 64.5333 53.76 63.9893 53.952C63.4613 54.144 62.8933 54.24 62.2853 54.24ZM63.1013 51.624C63.7893 51.624 64.3973 51.456 64.9253 51.12C65.4533 50.784 65.8613 50.32 66.1493 49.728C66.4533 49.12 66.6053 48.424 66.6053 47.64C66.6053 46.872 66.4533 46.192 66.1493 45.6C65.8613 45.008 65.4533 44.544 64.9253 44.208C64.3973 43.872 63.7893 43.704 63.1013 43.704C62.4133 43.704 61.8053 43.872 61.2773 44.208C60.7653 44.544 60.3653 45.008 60.0773 45.6C59.7893 46.192 59.6453 46.872 59.6453 47.64C59.6453 48.424 59.7893 49.12 60.0773 49.728C60.3653 50.32 60.7653 50.784 61.2773 51.12C61.8053 51.456 62.4133 51.624 63.1013 51.624ZM75.6677 50.136L75.0917 47.376L81.0917 41.352H85.0277L75.6677 50.136ZM72.9077 54V36.24H75.8597V54H72.9077ZM81.4517 54L76.7957 48.36L78.8837 46.584L85.0997 54H81.4517ZM92.4294 54.24C91.1014 54.24 89.9254 53.96 88.9014 53.4C87.8934 52.84 87.1014 52.08 86.5254 51.12C85.9654 50.144 85.6854 49.032 85.6854 47.784C85.6854 46.792 85.8454 45.888 86.1654 45.072C86.4854 44.256 86.9254 43.552 87.4854 42.96C88.0614 42.352 88.7414 41.888 89.5254 41.568C90.3254 41.232 91.1974 41.064 92.1414 41.064C92.9734 41.064 93.7494 41.224 94.4694 41.544C95.1894 41.864 95.8134 42.304 96.3414 42.864C96.8694 43.408 97.2694 44.064 97.5414 44.832C97.8294 45.584 97.9654 46.408 97.9494 47.304L97.9254 48.336H87.6774L87.1254 46.32H95.4534L95.0694 46.728V46.2C95.0214 45.704 94.8614 45.272 94.5894 44.904C94.3174 44.52 93.9654 44.224 93.5334 44.016C93.1174 43.792 92.6534 43.68 92.1414 43.68C91.3574 43.68 90.6934 43.832 90.1494 44.136C89.6214 44.44 89.2214 44.88 88.9494 45.456C88.6774 46.016 88.5414 46.72 88.5414 47.568C88.5414 48.384 88.7094 49.096 89.0454 49.704C89.3974 50.312 89.8854 50.784 90.5094 51.12C91.1494 51.44 91.8934 51.6 92.7414 51.6C93.3334 51.6 93.8774 51.504 94.3734 51.312C94.8694 51.12 95.4054 50.776 95.9814 50.28L97.4454 52.32C97.0134 52.72 96.5174 53.064 95.9574 53.352C95.4134 53.624 94.8374 53.84 94.2294 54C93.6214 54.16 93.0214 54.24 92.4294 54.24Z" fill="white"/>
</g>
<defs>
<filter id="filter0_d_102_388" x="0.255981" y="0.232056" width="197.369" height="63.0079" filterUnits="userSpaceOnUse" color-interpolation-filters="sRGB">
<feFlood flood-opacity="0" result="BackgroundImageFix"/>
<feColorMatrix in="SourceAlpha" type="matrix" values="0 0 0 0 0 0 0 0 0 0 0 0 0 0 0 0 0 0 127 0" result="hardAlpha"/>
<feOffset dy="4"/>
<feGaussianBlur stdDeviation="2.5"/>
<feComposite in2="hardAlpha" operator="out"/>
<feColorMatrix type="matrix" values="0 0 0 0 0 0 0 0 0 0 0 0 0 0 0 0 0 0 1 0"/>
<feBlend mode="normal" in2="BackgroundImageFix" result="effect1_dropShadow_102_388"/>
<feBlend mode="normal" in="SourceGraphic" in2="effect1_dropShadow_102_388" result="shape"/>
</filter>
</defs>
</svg>
